{
  "asset": {
    "version": "2.0",
    "generator": "babylon.js glTF exporter for 3dsmax 2023 v20240125.3"
  },
  "scene": 0,
  "scenes": [
    {
      "nodes": [
        0,
        1,
        2
      ]
    }
  ],
  "nodes": [
    {
      "mesh": 0,
      "translation": [
        -1.21480489,
        0.0,
        1.89431262
      ],
      "name": "Box011"
    },
    {
      "mesh": 1,
      "translation": [
        -0.614805043,
        0.059482,
        1.29431248
      ],
      "rotation": [
        3.09086268E-08,
        0.7071068,
        0.7071068,
        -3.09086232E-08
      ],
      "scale": [
        0.99999994,
        0.99999994,
        0.99999994
      ],
      "name": "aire acondicionado",
      "extras": {
        "MaxHandle": 0
      }
    },
    {
      "mesh": 2,
      "translation": [
        -0.614805341,
        0.0,
        1.29431272
      ],
      "name": "Box124"
    }
  ],
  "meshes": [
    {
      "primitives": [
        {
          "attributes": {
            "POSITION": 1,
            "NORMAL": 2,
            "TEXCOORD_0": 3,
            "TEXCOORD_1": 4
          },
          "indices": 0,
          "material": 0
        },
        {
          "attributes": {
            "POSITION": 6,
            "NORMAL": 7,
            "TEXCOORD_0": 8,
            "TEXCOORD_1": 9
          },
          "indices": 5,
          "material": 1
        }
      ],
      "name": "Box011"
    },
    {
      "primitives": [
        {
          "attributes": {
            "POSITION": 11,
            "NORMAL": 12,
            "TEXCOORD_0": 13,
            "TEXCOORD_1": 14
          },
          "indices": 10,
          "material": 2
        },
        {
          "attributes": {
            "POSITION": 16,
            "NORMAL": 17,
            "TEXCOORD_0": 18,
            "TEXCOORD_1": 19
          },
          "indices": 15,
          "material": 3
        }
      ],
      "name": "aire acondicionado"
    },
    {
      "primitives": [
        {
          "attributes": {
            "POSITION": 21,
            "NORMAL": 22,
            "TEXCOORD_0": 23,
            "TEXCOORD_1": 24
          },
          "indices": 20,
          "material": 4
        }
      ],
      "name": "Box124"
    }
  ],
  "accessors": [
    {
      "bufferView": 0,
      "componentType": 5123,
      "count": 870,
      "type": "SCALAR",
      "name": "accessorIndices"
    },
    {
      "bufferView": 1,
      "componentType": 5126,
      "count": 580,
      "max": [
        3.29,
        0.05499999,
        0.29
      ],
      "min": [
        -0.289999962,
        0.049999997,
        -2.68999982
      ],
      "type": "VEC3",
      "name": "accessorPositions"
    },
    {
      "bufferView": 1,
      "byteOffset": 6960,
      "componentType": 5126,
      "count": 580,
      "type": "VEC3",
      "name": "accessorNormals"
    },
    {
      "bufferView": 2,
      "componentType": 5126,
      "count": 580,
      "type": "VEC2",
      "name": "accessorUVs"
    },
    {
      "bufferView": 2,
      "byteOffset": 4640,
      "componentType": 5126,
      "count": 580,
      "type": "VEC2",
      "name": "accessorUV2s"
    },
    {
      "bufferView": 0,
      "byteOffset": 1740,
      "componentType": 5123,
      "count": 2262,
      "type": "SCALAR",
      "name": "accessorIndices"
    },
    {
      "bufferView": 1,
      "byteOffset": 13920,
      "componentType": 5126,
      "count": 1044,
      "max": [
        3.3,
        0.049999997,
        0.299999982
      ],
      "min": [
        -0.299999982,
        0.0,
        -2.69999981
      ],
      "type": "VEC3",
      "name": "accessorPositions"
    },
    {
      "bufferView": 1,
      "byteOffset": 26448,
      "componentType": 5126,
      "count": 1044,
      "type": "VEC3",
      "name": "accessorNormals"
    },
    {
      "bufferView": 2,
      "byteOffset": 9280,
      "componentType": 5126,
      "count": 1044,
      "type": "VEC2",
      "name": "accessorUVs"
    },
    {
      "bufferView": 2,
      "byteOffset": 17632,
      "componentType": 5126,
      "count": 1044,
      "type": "VEC2",
      "name": "accessorUV2s"
    },
    {
      "bufferView": 0,
      "byteOffset": 6264,
      "componentType": 5123,
      "count": 5994,
      "type": "SCALAR",
      "name": "accessorIndices"
    },
    {
      "bufferView": 1,
      "byteOffset": 38976,
      "componentType": 5126,
      "count": 2381,
      "max": [
        0.3,
        0.3,
        0.0131932469
      ],
      "min": [
        -0.3,
        -0.299999923,
        -0.0101670334
      ],
      "type": "VEC3",
      "name": "accessorPositions"
    },
    {
      "bufferView": 1,
      "byteOffset": 67548,
      "componentType": 5126,
      "count": 2381,
      "type": "VEC3",
      "name": "accessorNormals"
    },
    {
      "bufferView": 2,
      "byteOffset": 25984,
      "componentType": 5126,
      "count": 2381,
      "type": "VEC2",
      "name": "accessorUVs"
    },
    {
      "bufferView": 2,
      "byteOffset": 45032,
      "componentType": 5126,
      "count": 2381,
      "type": "VEC2",
      "name": "accessorUV2s"
    },
    {
      "bufferView": 0,
      "byteOffset": 18252,
      "componentType": 5123,
      "count": 114,
      "type": "SCALAR",
      "name": "accessorIndices"
    },
    {
      "bufferView": 1,
      "byteOffset": 96120,
      "componentType": 5126,
      "count": 56,
      "max": [
        0.259533256,
        0.260212362,
        -0.009481924
      ],
      "min": [
        -0.259533048,
        -0.259533077,
        -0.07519822
      ],
      "type": "VEC3",
      "name": "accessorPositions"
    },
    {
      "bufferView": 1,
      "byteOffset": 96792,
      "componentType": 5126,
      "count": 56,
      "type": "VEC3",
      "name": "accessorNormals"
    },
    {
      "bufferView": 2,
      "byteOffset": 64080,
      "componentType": 5126,
      "count": 56,
      "type": "VEC2",
      "name": "accessorUVs"
    },
    {
      "bufferView": 2,
      "byteOffset": 64528,
      "componentType": 5126,
      "count": 56,
      "type": "VEC2",
      "name": "accessorUV2s"
    },
    {
      "bufferView": 0,
      "byteOffset": 18480,
      "componentType": 5123,
      "count": 108,
      "type": "SCALAR",
      "name": "accessorIndices"
    },
    {
      "bufferView": 1,
      "byteOffset": 97464,
      "componentType": 5126,
      "count": 56,
      "max": [
        0.299999982,
        0.05499999,
        0.299999982
      ],
      "min": [
        -0.299999982,
        0.0,
        -0.299999982
      ],
      "type": "VEC3",
      "name": "accessorPositions"
    },
    {
      "bufferView": 1,
      "byteOffset": 98136,
      "componentType": 5126,
      "count": 56,
      "type": "VEC3",
      "name": "accessorNormals"
    },
    {
      "bufferView": 2,
      "byteOffset": 64976,
      "componentType": 5126,
      "count": 56,
      "type": "VEC2",
      "name": "accessorUVs"
    },
    {
      "bufferView": 2,
      "byteOffset": 65424,
      "componentType": 5126,
      "count": 56,
      "type": "VEC2",
      "name": "accessorUV2s"
    }
  ],
  "bufferViews": [
    {
      "buffer": 0,
      "byteLength": 18696,
      "name": "bufferViewScalar"
    },
    {
      "buffer": 0,
      "byteOffset": 18696,
      "byteLength": 98808,
      "byteStride": 12,
      "name": "bufferViewFloatVec3"
    },
    {
      "buffer": 0,
      "byteOffset": 117504,
      "byteLength": 65872,
      "byteStride": 8,
      "name": "bufferViewFloatVec2"
    }
  ],
  "buffers": [
    {
      "uri": "techo_oficinas.bin",
      "byteLength": 183376
    }
  ],
  "materials": [
    {
      "pbrMetallicRoughness": {
        "baseColorFactor": [
          0.633093536,
          0.633093536,
          0.633093536,
          1.0
        ],
        "metallicFactor": 0.0
      },
      "doubleSided": true,
      "name": "Material #25",
      "extras": {
        "directIntensity": 1.0,
        "emissiveIntensity": 1.0,
        "environmentIntensity": 1.0,
        "specularIntensity": 1.0,
        "cameraContrast": 1.0,
        "lightmapTexture": {
          "name": "Lightmap-0_comp_light.jpg",
          "level": 1.0,
          "hasAlpha": true,
          "getAlphaFromRGB": false,
          "coordinatesMode": 0,
          "isCube": false,
          "uOffset": 0.0,
          "vOffset": 0.0,
          "uScale": 1.0,
          "vScale": 1.0,
          "uRotationCenter": 0.5,
          "vRotationCenter": 0.5,
          "wRotationCenter": 0.5,
          "invertY": false,
          "uAng": 0.0,
          "vAng": 0.0,
          "wAng": 0.0,
          "wrapU": 1,
          "wrapV": 1,
          "coordinatesIndex": 1,
          "isRenderTarget": false,
          "renderTargetSize": 0,
          "mirrorPlane": null,
          "renderList": null,
          "animations": [],
          "extensions": null,
          "samplingMode": 3
        },
        "babylonSeparateCullingPass": false
      }
    },
    {
      "pbrMetallicRoughness": {
        "baseColorFactor": [
          0.2733813,
          0.2733813,
          0.2733813,
          1.0
        ],
        "metallicFactor": 0.0
      },
      "doubleSided": true,
      "name": "Material #37",
      "extras": {
        "directIntensity": 1.0,
        "emissiveIntensity": 1.0,
        "environmentIntensity": 1.0,
        "specularIntensity": 1.0,
        "cameraContrast": 1.0,
        "lightmapTexture": {
          "name": "Lightmap-0_comp_light.jpg",
          "level": 1.0,
          "hasAlpha": true,
          "getAlphaFromRGB": false,
          "coordinatesMode": 0,
          "isCube": false,
          "uOffset": 0.0,
          "vOffset": 0.0,
          "uScale": 1.0,
          "vScale": 1.0,
          "uRotationCenter": 0.5,
          "vRotationCenter": 0.5,
          "wRotationCenter": 0.5,
          "invertY": false,
          "uAng": 0.0,
          "vAng": 0.0,
          "wAng": 0.0,
          "wrapU": 1,
          "wrapV": 1,
          "coordinatesIndex": 1,
          "isRenderTarget": false,
          "renderTargetSize": 0,
          "mirrorPlane": null,
          "renderList": null,
          "animations": [],
          "extensions": null,
          "samplingMode": 3
        },
        "babylonSeparateCullingPass": false
      }
    },
    {
      "pbrMetallicRoughness": {
        "baseColorFactor": [
          0.7553957,
          0.7553957,
          0.7553957,
          1.0
        ],
        "metallicFactor": 0.0,
        "roughnessFactor": 0.7
      },
      "doubleSided": true,
      "name": "Material #38",
      "extras": {
        "directIntensity": 1.0,
        "emissiveIntensity": 1.0,
        "environmentIntensity": 1.0,
        "specularIntensity": 1.0,
        "cameraContrast": 1.0,
        "lightmapTexture": {
          "name": "Lightmap-1_comp_light.jpg",
          "level": 1.0,
          "hasAlpha": true,
          "getAlphaFromRGB": false,
          "coordinatesMode": 0,
          "isCube": false,
          "uOffset": 0.0,
          "vOffset": 0.0,
          "uScale": 1.0,
          "vScale": 1.0,
          "uRotationCenter": 0.5,
          "vRotationCenter": 0.5,
          "wRotationCenter": 0.5,
          "invertY": false,
          "uAng": 0.0,
          "vAng": 0.0,
          "wAng": 0.0,
          "wrapU": 1,
          "wrapV": 1,
          "coordinatesIndex": 1,
          "isRenderTarget": false,
          "renderTargetSize": 0,
          "mirrorPlane": null,
          "renderList": null,
          "animations": [],
          "extensions": null,
          "samplingMode": 3
        },
        "babylonSeparateCullingPass": false
      }
    },
    {
      "pbrMetallicRoughness": {
        "baseColorFactor": [
          0.05921054,
          0.04259751,
          0.04259751,
          1.0
        ],
        "metallicFactor": 0.0
      },
      "doubleSided": true,
      "name": "Material #50",
      "extras": {
        "directIntensity": 1.0,
        "emissiveIntensity": 1.0,
        "environmentIntensity": 1.0,
        "specularIntensity": 1.0,
        "cameraContrast": 1.0,
        "lightmapTexture": {
          "name": "Lightmap-1_comp_light.jpg",
          "level": 1.0,
          "hasAlpha": true,
          "getAlphaFromRGB": false,
          "coordinatesMode": 0,
          "isCube": false,
          "uOffset": 0.0,
          "vOffset": 0.0,
          "uScale": 1.0,
          "vScale": 1.0,
          "uRotationCenter": 0.5,
          "vRotationCenter": 0.5,
          "wRotationCenter": 0.5,
          "invertY": false,
          "uAng": 0.0,
          "vAng": 0.0,
          "wAng": 0.0,
          "wrapU": 1,
          "wrapV": 1,
          "coordinatesIndex": 1,
          "isRenderTarget": false,
          "renderTargetSize": 0,
          "mirrorPlane": null,
          "renderList": null,
          "animations": [],
          "extensions": null,
          "samplingMode": 3
        },
        "babylonSeparateCullingPass": false
      }
    },
    {
      "pbrMetallicRoughness": {
        "baseColorFactor": [
          0.5,
          0.5,
          0.5,
          1.0
        ],
        "metallicFactor": 0.0,
        "roughnessFactor": 0.0
      },
      "doubleSided": true,
      "name": "Material #51",
      "extras": {
        "babylonSeparateCullingPass": false,
        "directIntensity": 1.0,
        "emissiveIntensity": 1.0,
        "environmentIntensity": 1.0,
        "specularIntensity": 1.0,
        "cameraContrast": 1.0,
        "lightmapTexture": {
          "name": "Lightmap-1_comp_light.jpg",
          "level": 1.0,
          "hasAlpha": true,
          "getAlphaFromRGB": false,
          "coordinatesMode": 0,
          "isCube": false,
          "uOffset": 0.0,
          "vOffset": 0.0,
          "uScale": 1.0,
          "vScale": 1.0,
          "uRotationCenter": 0.5,
          "vRotationCenter": 0.5,
          "wRotationCenter": 0.5,
          "invertY": false,
          "uAng": 0.0,
          "vAng": 0.0,
          "wAng": 0.0,
          "wrapU": 1,
          "wrapV": 1,
          "coordinatesIndex": 1,
          "isRenderTarget": false,
          "renderTargetSize": 0,
          "mirrorPlane": null,
          "renderList": null,
          "animations": [],
          "extensions": null,
          "samplingMode": 3
        }
      }
    }
  ]
}