{
  "asset": {
    "version": "2.0",
    "generator": "babylon.js glTF exporter for 3dsmax 2023 v20221031.2"
  },
  "scene": 0,
  "scenes": [
    {
      "nodes": [
        0,
        1,
        2,
        3,
        4,
        5,
        6,
        7,
        8,
        9,
        10,
        11,
        12,
        13,
        14,
        15
      ]
    }
  ],
  "nodes": [
    {
      "mesh": 0,
      "translation": [
        -3.75211883,
        2.50004935,
        4.093545
      ],
      "rotation": [
        0.7071068,
        0.0,
        0.0,
        0.7071067
      ],
      "name": "ceiling_01",
      "extras": {
        "paramrenderwidth": 2048,
        "paramrenderheight": 2048,
        "paramfacecolor": [
          0.7058824,
          0.20784314,
          0.09019608
        ],
        "paramedgecolor": [
          1.0,
          0.7764706,
          0.0
        ],
        "paramedgewidth": 1
      }
    },
    {
      "mesh": 1,
      "translation": [
        -2.97136164,
        1.034311,
        3.035401
      ],
      "rotation": [
        0.7071068,
        0.0,
        0.0,
        0.7071067
      ],
      "name": "objects_01",
      "extras": {
        "paramrenderwidth": 2048,
        "paramrenderheight": 2048,
        "paramfacecolor": [
          0.7058824,
          0.20784314,
          0.09019608
        ],
        "paramedgecolor": [
          1.0,
          0.7764706,
          0.0
        ],
        "paramedgewidth": 1
      }
    },
    {
      "translation": [
        -5.0,
        1.0,
        3.0
      ],
      "name": "living_01_PhysCamera.Target"
    },
    {
      "translation": [
        -1.25,
        1.0,
        6.0
      ],
      "name": "bath_01_PhysCamera.Target"
    },
    {
      "translation": [
        -1.38786054,
        1.0,
        1.34052849
      ],
      "name": "bed_01_PhysCamera.Target"
    },
    {
      "translation": [
        -3.2972672,
        1.34927142,
        6.53254938
      ],
      "name": "kitchen_01_PhysCamera.Target"
    },
    {
      "translation": [
        -6.0,
        1.0,
        7.5
      ],
      "name": "hall_01_PhysCamera.Target"
    },
    {
      "translation": [
        -1.5,
        1.1,
        6.0
      ],
      "name": "bath_02_PhysCamera.Target"
    },
    {
      "translation": [
        -3.28394413,
        0.0,
        -2.42400169
      ],
      "name": "VRaySun001.Target"
    },
    {
      "mesh": 2,
      "translation": [
        -2.97136164,
        1.034311,
        3.035401
      ],
      "rotation": [
        0.7071068,
        0.0,
        0.0,
        0.7071067
      ],
      "name": "flat_01"
    },
    {
      "camera": 0,
      "translation": [
        -3.57293463,
        1.5,
        7.081185
      ],
      "rotation": [
        -0.05672422,
        0.167120978,
        0.009631455,
        0.984256148
      ],
      "scale": [
        0.99999994,
        1.0,
        0.99999994
      ],
      "name": "living_01_PhysCamera"
    },
    {
      "camera": 1,
      "translation": [
        -2.5,
        1.5,
        1.5
      ],
      "rotation": [
        -0.007198721,
        -0.989429057,
        -0.05281204,
        0.13486743
      ],
      "name": "bath_01_PhysCamera"
    },
    {
      "camera": 2,
      "translation": [
        -2.9,
        1.5,
        4.9
      ],
      "rotation": [
        -0.06295127,
        -0.19909966,
        -0.012817204,
        0.977871239
      ],
      "name": "bed_01_PhysCamera"
    },
    {
      "camera": 3,
      "translation": [
        -6.119516,
        1.5,
        3.15140986
      ],
      "rotation": [
        -0.005829215,
        -0.9399964,
        -0.01608038,
        0.340755254
      ],
      "scale": [
        1.0,
        0.99999994,
        1.0
      ],
      "name": "kitchen_01_PhysCamera"
    },
    {
      "camera": 4,
      "translation": [
        -3.0,
        1.35,
        5.8
      ],
      "rotation": [
        0.0254542977,
        -0.862901032,
        -0.0436811447,
        -0.5028378
      ],
      "scale": [
        1.0,
        1.0,
        0.99999994
      ],
      "name": "hall_01_PhysCamera"
    },
    {
      "camera": 5,
      "translation": [
        -2.0,
        1.5,
        3.0
      ],
      "rotation": [
        -0.00538909063,
        -0.9944632,
        -0.0651150942,
        0.0823043
      ],
      "scale": [
        1.0,
        0.99999994,
        0.99999994
      ],
      "name": "bath_02_PhysCamera"
    }
  ],
  "cameras": [
    {
      "perspective": {
        "yfov": 0.8905534,
        "zfar": 10000.0,
        "znear": 0.1
      },
      "type": "perspective",
      "name": "living_01_PhysCamera"
    },
    {
      "perspective": {
        "yfov": 0.8908831,
        "zfar": 10000.0,
        "znear": 0.1
      },
      "type": "perspective",
      "name": "bath_01_PhysCamera"
    },
    {
      "perspective": {
        "yfov": 0.890031934,
        "zfar": 10000.0,
        "znear": 0.1
      },
      "type": "perspective",
      "name": "bed_01_PhysCamera"
    },
    {
      "perspective": {
        "yfov": 0.8906089,
        "zfar": 10000.0,
        "znear": 0.1
      },
      "type": "perspective",
      "name": "kitchen_01_PhysCamera"
    },
    {
      "perspective": {
        "yfov": 1.0757395,
        "zfar": 10000.0,
        "znear": 0.1
      },
      "type": "perspective",
      "name": "hall_01_PhysCamera"
    },
    {
      "perspective": {
        "yfov": 0.888671458,
        "zfar": 10000.0,
        "znear": 0.1
      },
      "type": "perspective",
      "name": "bath_02_PhysCamera"
    }
  ],
  "meshes": [
    {
      "primitives": [
        {
          "attributes": {
            "POSITION": 1,
            "NORMAL": 2,
            "TEXCOORD_0": 3
          },
          "indices": 0,
          "material": 0
        }
      ],
      "name": "ceiling_01"
    },
    {
      "primitives": [
        {
          "attributes": {
            "POSITION": 5,
            "NORMAL": 6,
            "TEXCOORD_0": 7
          },
          "indices": 4,
          "material": 1
        }
      ],
      "name": "objects_01"
    },
    {
      "primitives": [
        {
          "attributes": {
            "POSITION": 9,
            "NORMAL": 10,
            "TEXCOORD_0": 11
          },
          "indices": 8,
          "material": 2
        }
      ],
      "name": "flat_01"
    }
  ],
  "accessors": [
    {
      "bufferView": 0,
      "componentType": 5123,
      "count": 12,
      "type": "SCALAR",
      "name": "accessorIndices"
    },
    {
      "bufferView": 1,
      "componentType": 5126,
      "count": 6,
      "max": [
        3.75212383,
        4.09354973,
        4.99489324E-05
      ],
      "min": [
        -3.75212383,
        -4.09354973,
        4.92331965E-05
      ],
      "type": "VEC3",
      "name": "accessorPositions"
    },
    {
      "bufferView": 1,
      "byteOffset": 72,
      "componentType": 5126,
      "count": 6,
      "type": "VEC3",
      "name": "accessorNormals"
    },
    {
      "bufferView": 2,
      "componentType": 5126,
      "count": 6,
      "type": "VEC2",
      "name": "accessorUVs"
    },
    {
      "bufferView": 0,
      "byteOffset": 24,
      "componentType": 5123,
      "count": 19008,
      "type": "SCALAR",
      "name": "accessorIndices"
    },
    {
      "bufferView": 1,
      "byteOffset": 144,
      "componentType": 5126,
      "count": 7851,
      "max": [
        2.97136664,
        5.15169334,
        1.23431146
      ],
      "min": [
        -4.532881,
        -3.03540635,
        -1.35515869
      ],
      "type": "VEC3",
      "name": "accessorPositions"
    },
    {
      "bufferView": 1,
      "byteOffset": 94356,
      "componentType": 5126,
      "count": 7851,
      "type": "VEC3",
      "name": "accessorNormals"
    },
    {
      "bufferView": 2,
      "byteOffset": 48,
      "componentType": 5126,
      "count": 7851,
      "type": "VEC2",
      "name": "accessorUVs"
    },
    {
      "bufferView": 0,
      "byteOffset": 38040,
      "componentType": 5123,
      "count": 26886,
      "type": "SCALAR",
      "name": "accessorIndices"
    },
    {
      "bufferView": 1,
      "byteOffset": 188568,
      "componentType": 5126,
      "count": 6166,
      "max": [
        2.97136664,
        5.15169334,
        1.04340386
      ],
      "min": [
        -4.5328784,
        -3.03540635,
        -1.46568918
      ],
      "type": "VEC3",
      "name": "accessorPositions"
    },
    {
      "bufferView": 1,
      "byteOffset": 262560,
      "componentType": 5126,
      "count": 6166,
      "type": "VEC3",
      "name": "accessorNormals"
    },
    {
      "bufferView": 2,
      "byteOffset": 62856,
      "componentType": 5126,
      "count": 6166,
      "type": "VEC2",
      "name": "accessorUVs"
    }
  ],
  "bufferViews": [
    {
      "buffer": 0,
      "byteLength": 91812,
      "name": "bufferViewScalar"
    },
    {
      "buffer": 0,
      "byteOffset": 91812,
      "byteLength": 336552,
      "byteStride": 12,
      "name": "bufferViewFloatVec3"
    },
    {
      "buffer": 0,
      "byteOffset": 428364,
      "byteLength": 112184,
      "byteStride": 8,
      "name": "bufferViewFloatVec2"
    }
  ],
  "buffers": [
    {
      "uri": "3.bin",
      "byteLength": 540548
    }
  ],
  "materials": [
    {
      "pbrMetallicRoughness": {
        "metallicFactor": 0.0
      },
      "name": "ceiling_gltf"
    },
    {
      "pbrMetallicRoughness": {
        "metallicFactor": 0.0
      },
      "name": "objects_gltf"
    },
    {
      "pbrMetallicRoughness": {
        "metallicFactor": 0.0
      },
      "name": "flat_gltf"
    }
  ]
}