{
  "asset": {
    "version": "2.0",
    "generator": "babylon.js glTF exporter for 3dsmax 2023 v20240125.3"
  },
  "scene": 0,
  "scenes": [
    {
      "nodes": [
        0
      ]
    }
  ],
  "nodes": [
    {
      "mesh": 0,
      "translation": [
        0.11880517,
        0.0,
        -0.0188266952
      ],
      "name": "Teapot001"
    }
  ],
  "meshes": [
    {
      "primitives": [
        {
          "attributes": {
            "POSITION": 1,
            "NORMAL": 2,
            "TEXCOORD_0": 3,
            "TEXCOORD_1": 4
          },
          "indices": 0,
          "material": 0
        }
      ],
      "name": "Teapot001"
    }
  ],
  "accessors": [
    {
      "bufferView": 0,
      "componentType": 5123,
      "count": 12288,
      "type": "SCALAR",
      "name": "accessorIndices"
    },
    {
      "bufferView": 1,
      "componentType": 5126,
      "count": 2992,
      "max": [
        1.86073756,
        1.7072705,
        1.08398128
      ],
      "min": [
        -1.62597191,
        0.0,
        -1.08398128
      ],
      "type": "VEC3",
      "name": "accessorPositions"
    },
    {
      "bufferView": 1,
      "byteOffset": 35904,
      "componentType": 5126,
      "count": 2992,
      "type": "VEC3",
      "name": "accessorNormals"
    },
    {
      "bufferView": 2,
      "componentType": 5126,
      "count": 2992,
      "type": "VEC2",
      "name": "accessorUVs"
    },
    {
      "bufferView": 2,
      "byteOffset": 23936,
      "componentType": 5126,
      "count": 2992,
      "type": "VEC2",
      "name": "accessorUV2s"
    }
  ],
  "bufferViews": [
    {
      "buffer": 0,
      "byteLength": 24576,
      "name": "bufferViewScalar"
    },
    {
      "buffer": 0,
      "byteOffset": 24576,
      "byteLength": 71808,
      "byteStride": 12,
      "name": "bufferViewFloatVec3"
    },
    {
      "buffer": 0,
      "byteOffset": 96384,
      "byteLength": 47872,
      "byteStride": 8,
      "name": "bufferViewFloatVec2"
    }
  ],
  "buffers": [
    {
      "uri": "t2_a001_04.6_Github.bin",
      "byteLength": 144256
    }
  ],
  "materials": [
    {
      "pbrMetallicRoughness": {
        "baseColorFactor": [
          0.5,
          0.5,
          0.5,
          1.0
        ],
        "metallicFactor": 0.0,
        "roughnessFactor": 0.0
      },
      "doubleSided": true,
      "name": "Material #398",
      "extras": {
        "babylonSeparateCullingPass": false,
        "directIntensity": 1.0,
        "emissiveIntensity": 1.0,
        "environmentIntensity": 1.0,
        "specularIntensity": 1.0,
        "cameraContrast": 1.0,
        "lightmapTexture": {
          "name": "Lightmap-0_comp_light.jpg",
          "level": 1.0,
          "hasAlpha": true,
          "getAlphaFromRGB": false,
          "coordinatesMode": 0,
          "isCube": false,
          "uOffset": 0.0,
          "vOffset": 0.0,
          "uScale": 1.0,
          "vScale": 1.0,
          "uRotationCenter": 0.5,
          "vRotationCenter": 0.5,
          "wRotationCenter": 0.5,
          "invertY": false,
          "uAng": 0.0,
          "vAng": 0.0,
          "wAng": 0.0,
          "wrapU": 1,
          "wrapV": 1,
          "coordinatesIndex": 1,
          "isRenderTarget": false,
          "renderTargetSize": 0,
          "mirrorPlane": null,
          "renderList": null,
          "animations": [],
          "extensions": null,
          "samplingMode": 3
        }
      }
    }
  ]
}